<svg data-name="Calque 1" xmlns="http://www.w3.org/2000/svg" viewBox="0 0 197.51 204.49">
  <path d="M23.65 154.5h-23V1.6h33.03l21.48 109.83L75.77 1.6h31.78v152.9h-23V58.41l-20 96.09H45.97L23.65 58.65Zm136.64 1.95a36.43 36.43 0 0 1-36.58-36.46V36.6A36.53 36.53 0 0 1 160.29 0a35 35 0 0 1 25.85 10.73 35.44 35.44 0 0 1 10.57 25.87v17.42h-23.9V36.09a13.32 13.32 0 0 0-13.29-13.29 12.6 12.6 0 0 0-9.33 3.9 12.92 12.92 0 0 0-3.84 9.39v83.65a13.11 13.11 0 0 0 13.17 13.17 12.92 12.92 0 0 0 9.39-3.84 12.6 12.6 0 0 0 3.9-9.33V98.65h23.9v21.34a36.43 36.43 0 0 1-36.42 36.46ZM0 180.66h197.51v23.83H0z" 
  style="fill:currentColor"/>
</svg>
